<svg xmlns="http://www.w3.org/2000/svg" xmlns:xlink="http://www.w3.org/1999/xlink" width="288" zoomAndPan="magnify" viewBox="0 0 216 72" height="96" preserveAspectRatio="xMidYMid meet" version="1.0"><defs><g/><clipPath id="990a4415c3"><path d="M 188 12 L 206.71875 12 L 206.71875 47 L 188 47 Z M 188 12 " clip-rule="nonzero"/></clipPath><clipPath id="7000182338"><rect x="0" width="207" y="0" height="61"/></clipPath></defs><g transform="matrix(1, 0, 0, 1, 4, 5)"><g clip-path="url(#7000182338)"><g fill="#0b1b2b" fill-opacity="1"><g transform="translate(0.253675, 46.485769)"><g><path d="M 33.015625 -32.546875 C 33.015625 -32.390625 33 -32.273438 32.96875 -32.203125 L 25.578125 -5.625 C 25.109375 -3.863281 24.425781 -2.539062 23.53125 -1.65625 C 22.632812 -0.78125 21.628906 -0.195312 20.515625 0.09375 C 19.410156 0.382812 18.269531 0.53125 17.09375 0.53125 C 15.957031 0.53125 14.832031 0.382812 13.71875 0.09375 C 12.613281 -0.195312 11.617188 -0.78125 10.734375 -1.65625 C 9.859375 -2.539062 9.171875 -3.863281 8.671875 -5.625 L 1.34375 -32.203125 C 1.300781 -32.273438 1.28125 -32.390625 1.28125 -32.546875 C 1.28125 -33.210938 1.59375 -33.546875 2.21875 -33.546875 L 9.953125 -33.546875 C 10.578125 -33.546875 10.988281 -33.132812 11.1875 -32.3125 L 16.21875 -9.375 C 16.375 -8.550781 16.664062 -8.140625 17.09375 -8.140625 C 17.5625 -8.140625 17.875 -8.550781 18.03125 -9.375 L 23.0625 -32.3125 C 23.257812 -33.132812 23.671875 -33.546875 24.296875 -33.546875 L 32.03125 -33.546875 C 32.300781 -33.546875 32.53125 -33.457031 32.71875 -33.28125 C 32.914062 -33.101562 33.015625 -32.859375 33.015625 -32.546875 Z M 33.015625 -32.546875 "/></g></g></g><g fill="#0b1b2b" fill-opacity="1"><g transform="translate(31.400878, 46.485769)"><g><path d="M 29.390625 -1.171875 C 29.390625 -0.859375 29.269531 -0.582031 29.03125 -0.34375 C 28.800781 -0.113281 28.53125 0 28.21875 0 L 21.65625 0 C 21.34375 0 21.066406 -0.113281 20.828125 -0.34375 C 20.597656 -0.582031 20.484375 -0.859375 20.484375 -1.171875 L 20.484375 -2.109375 C 19.359375 -1.285156 18.160156 -0.640625 16.890625 -0.171875 C 15.617188 0.296875 14.109375 0.53125 12.359375 0.53125 C 10.671875 0.53125 9.054688 0.214844 7.515625 -0.40625 C 5.972656 -1.03125 4.722656 -2.070312 3.765625 -3.53125 C 2.816406 -5 2.34375 -7.003906 2.34375 -9.546875 L 2.34375 -10.0625 C 2.34375 -13.5 3.492188 -16.007812 5.796875 -17.59375 C 8.097656 -19.175781 11.75 -19.96875 16.75 -19.96875 L 19.90625 -19.96875 L 19.90625 -22.078125 C 19.90625 -23.753906 19.515625 -24.84375 18.734375 -25.34375 C 17.953125 -25.851562 16.878906 -26.109375 15.515625 -26.109375 C 13.640625 -26.109375 11.773438 -26.054688 9.921875 -25.953125 C 8.066406 -25.859375 6.691406 -25.773438 5.796875 -25.703125 L 5.5 -25.703125 C 4.800781 -25.703125 4.453125 -26.050781 4.453125 -26.75 L 4.453125 -31.5 C 4.453125 -32.164062 4.820312 -32.59375 5.5625 -32.78125 C 6.65625 -33.0625 8.140625 -33.335938 10.015625 -33.609375 C 11.890625 -33.878906 13.78125 -34.015625 15.6875 -34.015625 C 19.90625 -34.015625 23.242188 -33.097656 25.703125 -31.265625 C 28.160156 -29.429688 29.390625 -26.367188 29.390625 -22.078125 Z M 20.078125 -7.90625 L 20.078125 -14.34375 L 16.75 -14.34375 C 14.71875 -14.34375 13.347656 -13.988281 12.640625 -13.28125 C 11.941406 -12.582031 11.59375 -11.507812 11.59375 -10.0625 L 11.59375 -9.546875 C 11.59375 -8.335938 11.90625 -7.546875 12.53125 -7.171875 C 13.15625 -6.796875 14.070312 -6.609375 15.28125 -6.609375 C 16.175781 -6.609375 17.023438 -6.734375 17.828125 -6.984375 C 18.628906 -7.242188 19.378906 -7.550781 20.078125 -7.90625 Z M 20.078125 -7.90625 "/></g></g></g><g fill="#0b1b2b" fill-opacity="1"><g transform="translate(61.201486, 46.485769)"><g><path d="M 32.3125 -1.234375 C 32.3125 -0.921875 32.1875 -0.632812 31.9375 -0.375 C 31.6875 -0.125 31.40625 0 31.09375 0 L 24 0 C 23.6875 0 23.410156 -0.125 23.171875 -0.375 C 22.941406 -0.632812 22.828125 -0.921875 22.828125 -1.234375 L 22.828125 -20.71875 C 22.828125 -22.789062 22.550781 -24.21875 22 -25 C 21.457031 -25.78125 20.289062 -26.171875 18.5 -26.171875 C 17.644531 -26.171875 16.765625 -25.992188 15.859375 -25.640625 C 14.960938 -25.285156 14.007812 -24.835938 13 -24.296875 L 13 -1.234375 C 13 -0.921875 12.878906 -0.632812 12.640625 -0.375 C 12.410156 -0.125 12.140625 0 11.828125 0 L 4.75 0 C 4.4375 0 4.148438 -0.125 3.890625 -0.375 C 3.640625 -0.632812 3.515625 -0.921875 3.515625 -1.234375 L 3.515625 -32.375 C 3.515625 -32.6875 3.628906 -32.957031 3.859375 -33.1875 C 4.097656 -33.425781 4.375 -33.546875 4.6875 -33.546875 L 11.234375 -33.546875 C 11.546875 -33.546875 11.816406 -33.425781 12.046875 -33.1875 C 12.285156 -32.957031 12.40625 -32.6875 12.40625 -32.375 L 12.40625 -30.96875 C 14.007812 -32.101562 15.53125 -32.894531 16.96875 -33.34375 C 18.414062 -33.789062 20.078125 -34.015625 21.953125 -34.015625 C 24.804688 -34.015625 26.972656 -33.414062 28.453125 -32.21875 C 29.929688 -31.03125 30.941406 -29.429688 31.484375 -27.421875 C 32.035156 -25.410156 32.3125 -23.175781 32.3125 -20.71875 Z M 32.3125 -1.234375 "/></g></g></g><g fill="#0b1b2b" fill-opacity="1"><g transform="translate(93.929466, 46.485769)"><g><path d="M 33.375 -32.5 C 33.375 -32.457031 33.363281 -32.414062 33.34375 -32.375 C 33.320312 -32.332031 33.3125 -32.273438 33.3125 -32.203125 L 23.484375 2.28125 C 22.890625 4.382812 22.144531 6.140625 21.25 7.546875 C 20.351562 8.953125 19.082031 10.015625 17.4375 10.734375 C 15.800781 11.460938 13.539062 11.828125 10.65625 11.828125 C 9.957031 11.828125 9.140625 11.773438 8.203125 11.671875 C 7.265625 11.578125 6.382812 11.460938 5.5625 11.328125 C 4.738281 11.191406 4.078125 11.046875 3.578125 10.890625 C 3.265625 10.773438 2.976562 10.644531 2.71875 10.5 C 2.46875 10.363281 2.34375 10.140625 2.34375 9.828125 L 2.34375 5.09375 C 2.34375 4.78125 2.457031 4.515625 2.6875 4.296875 C 2.925781 4.085938 3.203125 3.984375 3.515625 3.984375 C 3.554688 3.984375 3.578125 3.984375 3.578125 3.984375 C 3.578125 3.984375 3.59375 3.984375 3.625 3.984375 C 4.601562 4.023438 5.820312 4.113281 7.28125 4.25 C 8.75 4.382812 9.972656 4.453125 10.953125 4.453125 C 12.003906 4.453125 12.820312 4.234375 13.40625 3.796875 C 13.988281 3.367188 14.457031 2.570312 14.8125 1.40625 L 15.34375 -0.40625 L 14.46875 -0.40625 C 13.757812 -0.40625 13.082031 -0.503906 12.4375 -0.703125 C 11.789062 -0.898438 11.1875 -1.390625 10.625 -2.171875 C 10.0625 -2.953125 9.523438 -4.179688 9.015625 -5.859375 L 1.28125 -32.203125 C 1.25 -32.316406 1.234375 -32.453125 1.234375 -32.609375 C 1.234375 -33.234375 1.625 -33.546875 2.40625 -33.546875 L 10.1875 -33.546875 C 10.5 -33.546875 10.75 -33.4375 10.9375 -33.21875 C 11.132812 -33.007812 11.253906 -32.75 11.296875 -32.4375 L 16.5625 -10.421875 C 16.71875 -9.679688 16.953125 -9.3125 17.265625 -9.3125 L 17.328125 -9.3125 C 17.410156 -9.3125 17.457031 -9.3125 17.46875 -9.3125 C 17.488281 -9.3125 17.519531 -9.3125 17.5625 -9.3125 C 17.644531 -9.3125 17.703125 -9.3125 17.734375 -9.3125 C 17.773438 -9.3125 17.796875 -9.3125 17.796875 -9.3125 L 23.25 -32.4375 C 23.320312 -32.75 23.460938 -33.007812 23.671875 -33.21875 C 23.890625 -33.4375 24.15625 -33.546875 24.46875 -33.546875 L 32.265625 -33.546875 C 32.578125 -33.546875 32.835938 -33.445312 33.046875 -33.25 C 33.265625 -33.0625 33.375 -32.8125 33.375 -32.5 Z M 33.375 -32.5 "/></g></g></g><g fill="#0b1b2b" fill-opacity="1"><g transform="translate(125.486507, 46.485769)"><g><path d="M 26.984375 -9.3125 C 26.984375 -7.476562 26.535156 -5.816406 25.640625 -4.328125 C 24.742188 -2.847656 23.367188 -1.664062 21.515625 -0.78125 C 19.660156 0.0898438 17.3125 0.53125 14.46875 0.53125 C 12.863281 0.53125 11.054688 0.410156 9.046875 0.171875 C 7.035156 -0.0546875 5.289062 -0.367188 3.8125 -0.765625 C 3.0625 -0.953125 2.6875 -1.398438 2.6875 -2.109375 L 2.6875 -6.84375 C 2.6875 -7.15625 2.785156 -7.421875 2.984375 -7.640625 C 3.179688 -7.859375 3.457031 -7.96875 3.8125 -7.96875 C 3.84375 -7.96875 3.878906 -7.96875 3.921875 -7.96875 C 3.960938 -7.96875 4.003906 -7.96875 4.046875 -7.96875 C 5.097656 -7.84375 6.273438 -7.710938 7.578125 -7.578125 C 8.890625 -7.441406 10.128906 -7.332031 11.296875 -7.25 C 12.472656 -7.175781 13.375 -7.140625 14 -7.140625 C 15.394531 -7.140625 16.316406 -7.332031 16.765625 -7.71875 C 17.222656 -8.113281 17.453125 -8.679688 17.453125 -9.421875 C 17.453125 -9.847656 17.296875 -10.25 16.984375 -10.625 C 16.671875 -11 16.101562 -11.421875 15.28125 -11.890625 L 7.671875 -16.28125 C 6.023438 -17.21875 4.742188 -18.414062 3.828125 -19.875 C 2.910156 -21.34375 2.453125 -23.03125 2.453125 -24.9375 C 2.453125 -27.90625 3.445312 -30.160156 5.4375 -31.703125 C 7.4375 -33.242188 10.445312 -34.015625 14.46875 -34.015625 C 16.769531 -34.015625 18.707031 -33.882812 20.28125 -33.625 C 21.863281 -33.375 23.394531 -33.054688 24.875 -32.671875 C 25.625 -32.472656 26 -32.023438 26 -31.328125 L 26 -26.578125 C 26 -25.835938 25.664062 -25.46875 25 -25.46875 C 24.957031 -25.46875 24.925781 -25.46875 24.90625 -25.46875 C 24.882812 -25.46875 24.859375 -25.46875 24.828125 -25.46875 C 24.273438 -25.539062 23.410156 -25.632812 22.234375 -25.75 C 21.066406 -25.875 19.835938 -25.984375 18.546875 -26.078125 C 17.265625 -26.179688 16.117188 -26.234375 15.109375 -26.234375 C 13.972656 -26.234375 13.171875 -26.113281 12.703125 -25.875 C 12.234375 -25.644531 12 -25.195312 12 -24.53125 C 12 -24.101562 12.15625 -23.742188 12.46875 -23.453125 C 12.78125 -23.160156 13.226562 -22.835938 13.8125 -22.484375 L 21.078125 -18.328125 C 23.492188 -16.921875 25.082031 -15.460938 25.84375 -13.953125 C 26.601562 -12.453125 26.984375 -10.90625 26.984375 -9.3125 Z M 26.984375 -9.3125 "/></g></g></g><g fill="#0b1b2b" fill-opacity="1"><g transform="translate(151.832815, 46.485769)"><g><path d="M 32.3125 -1.234375 C 32.3125 -0.921875 32.1875 -0.632812 31.9375 -0.375 C 31.6875 -0.125 31.40625 0 31.09375 0 L 24 0 C 23.6875 0 23.410156 -0.125 23.171875 -0.375 C 22.941406 -0.632812 22.828125 -0.921875 22.828125 -1.234375 L 22.828125 -20.71875 C 22.828125 -22.789062 22.550781 -24.21875 22 -25 C 21.457031 -25.78125 20.289062 -26.171875 18.5 -26.171875 C 17.644531 -26.171875 16.765625 -25.992188 15.859375 -25.640625 C 14.960938 -25.285156 14.007812 -24.835938 13 -24.296875 L 13 -1.234375 C 13 -0.921875 12.878906 -0.632812 12.640625 -0.375 C 12.410156 -0.125 12.140625 0 11.828125 0 L 4.75 0 C 4.4375 0 4.148438 -0.125 3.890625 -0.375 C 3.640625 -0.632812 3.515625 -0.921875 3.515625 -1.234375 L 3.515625 -43.734375 C 3.515625 -44.046875 3.628906 -44.316406 3.859375 -44.546875 C 4.097656 -44.785156 4.375 -44.90625 4.6875 -44.90625 L 11.828125 -44.90625 C 12.140625 -44.90625 12.410156 -44.785156 12.640625 -44.546875 C 12.878906 -44.316406 13 -44.046875 13 -43.734375 L 13 -31.375 C 14.476562 -32.351562 15.898438 -33.035156 17.265625 -33.421875 C 18.640625 -33.816406 20.203125 -34.015625 21.953125 -34.015625 C 24.804688 -34.015625 26.972656 -33.414062 28.453125 -32.21875 C 29.929688 -31.03125 30.941406 -29.429688 31.484375 -27.421875 C 32.035156 -25.410156 32.3125 -23.175781 32.3125 -20.71875 Z M 32.3125 -1.234375 "/></g></g></g><g clip-path="url(#990a4415c3)"><g fill="#0b1b2b" fill-opacity="1"><g transform="translate(184.560789, 46.485769)"><g><path d="M 21.890625 -27.28125 C 21.890625 -27.007812 21.8125 -26.753906 21.65625 -26.515625 C 21.5 -26.285156 21.285156 -26.171875 21.015625 -26.171875 L 20.546875 -26.171875 C 19.109375 -26.171875 17.765625 -25.972656 16.515625 -25.578125 C 15.265625 -25.191406 14.09375 -24.707031 13 -24.125 L 13 -1.234375 C 13 -0.921875 12.878906 -0.632812 12.640625 -0.375 C 12.410156 -0.125 12.140625 0 11.828125 0 L 4.75 0 C 4.4375 0 4.148438 -0.125 3.890625 -0.375 C 3.640625 -0.632812 3.515625 -0.921875 3.515625 -1.234375 L 3.515625 -32.375 C 3.515625 -32.6875 3.628906 -32.957031 3.859375 -33.1875 C 4.097656 -33.425781 4.375 -33.546875 4.6875 -33.546875 L 11.65625 -33.546875 C 11.96875 -33.546875 12.238281 -33.425781 12.46875 -33.1875 C 12.707031 -32.957031 12.828125 -32.6875 12.828125 -32.375 L 12.828125 -31.203125 C 13.921875 -32.097656 15.160156 -32.789062 16.546875 -33.28125 C 17.929688 -33.769531 19.320312 -34.015625 20.71875 -34.015625 C 21.03125 -34.015625 21.300781 -33.894531 21.53125 -33.65625 C 21.769531 -33.425781 21.890625 -33.15625 21.890625 -32.84375 Z M 21.890625 -27.28125 "/></g></g></g></g></g></g></svg>